<svg version="1.0" xmlns="http://www.w3.org/2000/svg" height="100%" viewBox="0 0 1310.000000 850.000000" preserveAspectRatio="xMidYMid meet"><g transform="translate(0.000000,1347.000000) scale(0.100000,-0.100000)" fill="currentColor" stroke="none"><path d="M3935 13101 c-175 -12 -476 -62 -635 -106 -25 -6 -74 -20 -110 -30 -36 -9 -76 -21 -90 -27 -14 -5 -56 -20 -95 -33 -38 -12 -81 -27 -95 -33 -14 -6 -50 -20 -80 -32 -103 -41 -155 -65 -285 -131 -163 -82 -242 -126 -280 -153 -16 -12 -55 -37 -85 -55 -30 -19 -115 -79 -189 -135 -521 -392 -910 -882 -1178 -1486 -9 -19 -20 -44 -26 -54 -5 -11 -13 -31 -18 -45 -4 -14 -22 -64 -39 -111 -46 -122 -59 -166 -117 -380 -59 -223 -103 -589 -103 -865 0 -163 20 -442 40 -550 6 -33 18 -98 26 -145 15 -83 24 -125 59 -260 29 -111 92 -303 121 -368 7 -18 14 -37 14 -42 0 -18 134 -299 197 -414 24 -43 43 -87 43 -97 0 -19 -101 -326 -240 -729 -45 -129 -85 -248 -90 -265 -4 -16 -18 -57 -29 -90 -12 -33 -31 -89 -42 -125 -12 -36 -32 -94 -45 -130 -77 -213 -184 -553 -184 -583 0 -27 7 -41 31 -61 35 -30 57 -32 119 -11 25 8 110 36 190 61 80 25 163 51 185 59 22 7 87 27 145 45 58 18 143 45 190 60 47 15 153 49 235 75 195 62 408 130 515 165 47 15 153 48 235 74 83 26 169 54 191 62 l42 15 125 -61 c69 -33 128 -60 131 -60 2 0 33 -13 68 -29 144 -66 416 -153 603 -194 39 -8 93 -20 120 -26 102 -23 280 -45 485 -62 198 -16 620 0 774 30 28 6 92 17 141 26 114 21 219 44 270 60 22 7 69 20 105 30 36 9 81 23 100 30 111 41 207 75 213 75 32 0 465 219 587 297 219 140 354 242 549 416 128 115 374 382 368 400 -3 9 -133 13 -518 15 -283 1 -523 0 -535 -2 -11 -3 -58 -34 -105 -69 -68 -51 -331 -217 -344 -217 -1 0 -56 -25 -121 -56 -168 -80 -377 -155 -514 -184 -19 -5 -72 -17 -117 -29 -242 -62 -716 -82 -1003 -41 -275 39 -413 73 -665 165 -38 14 -83 31 -100 39 -172 80 -300 146 -393 202 -97 58 -117 66 -147 61 -35 -6 -158 -43 -385 -116 -63 -21 -160 -52 -215 -69 -55 -17 -163 -52 -239 -77 -76 -25 -143 -42 -147 -38 -12 12 -3 40 136 448 169 496 165 484 165 512 0 29 -23 75 -60 123 -67 87 -205 334 -277 500 -11 25 -27 62 -36 83 -9 21 -17 42 -17 48 0 6 -6 25 -14 42 -26 59 -50 138 -86 287 -66 272 -75 356 -75 700 0 313 15 456 69 660 8 30 22 84 32 120 16 61 66 211 85 255 5 11 17 43 28 70 32 84 136 289 202 397 108 177 304 427 430 548 100 96 227 209 271 240 27 19 69 51 93 70 72 58 321 204 456 268 145 70 348 146 469 178 293 77 467 103 743 111 241 7 507 -20 710 -72 205 -53 271 -72 302 -85 20 -10 89 -34 135 -49 14 -5 78 -34 144 -65 65 -31 120 -56 122 -56 2 0 71 -40 152 -88 173 -103 346 -232 486 -361 l99 -91 483 0 c291 0 485 4 489 9 14 23 -247 342 -424 520 -344 346 -696 588 -1141 786 -137 61 -147 65 -163 65 -9 0 -18 3 -20 8 -3 4 -38 18 -79 31 -40 13 -89 29 -108 36 -99 36 -329 93 -485 119 -233 39 -317 47 -564 50 -141 3 -305 1 -366 -3z"/><path d="M7039 10350 c-64 -17 -186 -70 -217 -93 -9 -7 -48 -44 -88 -83 -80 -79 -122 -154 -148 -268 -23 -98 -24 -1082 -1 -1180 37 -161 127 -285 267 -368 90 -53 158 -75 292 -94 99 -14 121 -14 225 1 64 8 135 22 159 30 149 52 285 165 344 287 67 139 69 147 66 503 l-3 320 -355 0 -355 0 0 -170 0 -170 145 -5 145 -5 3 -124 c4 -169 -15 -216 -113 -279 -37 -24 -49 -26 -145 -27 -115 0 -147 10 -207 68 -67 63 -68 76 -68 622 0 546 1 559 68 623 98 94 303 98 399 7 33 -32 68 -103 68 -140 0 -56 -4 -55 210 -55 221 0 210 -4 210 75 0 44 -27 142 -59 210 -69 148 -222 264 -415 316 -97 25 -331 25 -427 -1z"/><path d="M3204 10337 c-21 -12 -21 -2029 0 -2046 9 -8 73 -11 207 -9 l194 3 5 367 c3 225 9 371 15 376 6 6 109 12 230 15 272 6 330 20 476 113 179 115 279 307 279 533 0 268 -130 480 -355 582 -138 62 -133 62 -603 68 -239 3 -440 2 -448 -2z m768 -378 c102 -22 164 -71 202 -163 35 -83 14 -222 -43 -283 -77 -82 -148 -103 -353 -103 -135 0 -148 2 -158 19 -11 21 -15 497 -4 525 5 14 28 16 155 16 81 0 172 -5 201 -11z"/><path d="M5537 10342 c-286 -3 -252 12 -283 -127 -9 -44 -23 -99 -31 -123 -7 -23 -13 -50 -13 -59 0 -9 -7 -39 -15 -67 -8 -28 -35 -136 -60 -241 -25 -104 -50 -206 -55 -225 -13 -49 -41 -159 -50 -200 -12 -52 -40 -168 -56 -230 -7 -30 -20 -82 -28 -115 -7 -33 -18 -78 -24 -100 -6 -22 -18 -71 -27 -110 -9 -38 -20 -83 -25 -100 -5 -16 -18 -70 -30 -120 -11 -49 -28 -118 -37 -152 -25 -97 -34 -93 197 -93 l200 0 11 28 c6 15 17 59 24 97 8 39 24 113 35 165 12 52 24 113 28 135 l8 40 248 0 248 0 18 -75 c10 -41 26 -111 35 -155 35 -168 47 -215 60 -225 8 -7 80 -9 206 -8 l194 3 3 25 c2 13 -4 51 -13 85 -35 129 -44 161 -50 195 -4 19 -11 49 -16 65 -11 38 -57 225 -70 284 -5 25 -13 59 -19 75 -5 17 -30 117 -55 221 -25 105 -51 208 -57 230 -6 22 -14 56 -18 75 -8 38 -54 220 -72 285 -6 22 -17 67 -25 100 -7 33 -18 76 -22 95 -5 19 -17 67 -25 105 -42 179 -52 208 -71 214 -11 3 -132 5 -268 3z m46 -502 c9 -41 23 -115 32 -165 9 -49 21 -110 27 -135 10 -40 20 -91 47 -240 5 -25 14 -68 20 -97 7 -28 11 -67 9 -85 l-3 -33 -160 0 -160 0 -3 34 c-2 19 3 61 12 95 8 33 22 99 31 146 9 47 23 112 30 145 29 136 45 215 60 305 9 52 19 101 21 109 8 25 21 -2 37 -79z"/><path d="M10400 10338 c-11 -4 -22 -20 -25 -35 -6 -27 -18 -78 -49 -198 -8 -33 -22 -91 -31 -130 -15 -65 -28 -115 -60 -240 -23 -92 -37 -150 -45 -185 -5 -19 -16 -66 -25 -105 -9 -38 -23 -95 -30 -125 -7 -30 -17 -73 -23 -95 -25 -90 -65 -253 -72 -290 -4 -22 -12 -60 -19 -85 -20 -73 -58 -222 -71 -280 -11 -46 -36 -154 -51 -211 -21 -82 -27 -80 203 -77 l202 3 17 70 c18 72 35 152 64 290 9 44 18 86 21 93 3 10 58 12 251 10 l248 -3 6 -35 c4 -19 11 -55 17 -80 7 -25 19 -81 28 -125 23 -116 35 -166 46 -197 l10 -28 200 0 c177 0 199 2 205 17 6 15 -8 83 -42 208 -8 28 -41 163 -75 300 -33 138 -67 273 -75 301 -8 28 -15 58 -15 66 0 9 -7 38 -15 64 -18 63 -101 395 -135 544 -10 46 -86 349 -105 420 -8 30 -19 74 -25 98 -6 23 -16 42 -23 42 -273 4 -493 3 -507 -2z m275 -461 c4 -23 11 -58 15 -77 5 -19 16 -75 25 -125 25 -136 70 -360 92 -456 8 -36 13 -81 11 -100 l-3 -34 -155 -3 c-196 -3 -190 -9 -155 143 28 125 92 436 120 590 9 50 19 96 21 103 7 24 22 3 29 -41z"/><path d="M8340 10151 c0 -163 2 -190 16 -195 9 -3 171 -6 360 -6 236 0 344 -3 344 -11 0 -5 -92 -164 -204 -352 -112 -188 -216 -364 -231 -392 -15 -27 -41 -69 -56 -93 -16 -24 -29 -45 -29 -48 0 -2 -12 -23 -27 -47 -15 -23 -33 -51 -39 -63 -6 -11 -43 -75 -83 -141 l-71 -119 2 -200 3 -199 620 -3 c574 -2 621 -1 633 15 15 21 17 335 2 364 -10 18 -25 19 -390 19 -323 0 -380 2 -380 14 0 11 191 342 280 486 54 86 170 282 170 285 0 3 14 24 30 47 17 22 30 45 30 49 0 4 14 28 30 52 17 25 30 47 30 50 0 4 13 25 29 49 16 24 39 61 50 83 12 22 27 49 34 60 61 99 57 79 57 290 l0 195 -605 0 -605 0 0 -189z"/><path d="M11688 10333 c-7 -37 -3 -2022 4 -2036 8 -16 26 -17 206 -15 l197 3 5 367 c3 225 9 371 15 376 6 6 109 12 230 15 226 5 276 13 388 61 121 53 247 173 301 289 53 114 58 135 63 265 6 146 -9 228 -65 341 -63 127 -185 237 -322 287 -30 12 -71 27 -90 35 -27 10 -132 14 -482 17 -247 1 -449 -1 -450 -5z m780 -374 c90 -20 149 -64 188 -141 19 -38 24 -63 24 -128 0 -94 -17 -137 -80 -199 -63 -62 -108 -73 -307 -79 l-173 -4 -10 27 c-13 35 -13 490 0 516 10 17 23 19 161 19 83 0 171 -5 197 -11z"/></g></svg>